<?xml version="1.0" encoding="UTF-8" standalone="no"?>
<svg width="33px" height="36px" viewBox="0 0 33 36" version="1.1" xmlns="http://www.w3.org/2000/svg" xmlns:xlink="http://www.w3.org/1999/xlink" xmlns:sketch="http://www.bohemiancoding.com/sketch/ns">
    <!-- Generator: Sketch 3.5.2 (25235) - http://www.bohemiancoding.com/sketch -->
    <title>Shape</title>
    <desc>Created with Sketch.</desc>
    <defs></defs>
    <g id="Page-1" stroke="none" stroke-width="1" fill="none" fill-rule="evenodd" sketch:type="MSPage">
        <g id="Day-15-Copy" sketch:type="MSArtboardGroup" transform="translate(-184.000000, -176.000000)" fill="#BDBDBD">
            <path d="M217,194 C217,195.563 216.769,197.0675 216.3625,198.5 L213.211,198.5 C213.7135,197.09 214,195.5795 214,194 C214,186.557 207.9445,180.5 200.5,180.5 C197.941,180.5 195.556,181.226 193.5175,182.471 L196.3045,186.5 L185.8135,186.5 L189.0415,176 L191.815,180.0095 C194.341,178.436 197.3035,177.5 200.5,177.5 C209.611,177.5 217,184.8875 217,194 L217,194 Z M207.469,205.538 C205.4335,206.777 203.053,207.5 200.5,207.5 C193.057,207.5 187,201.443 187,194 C187,192.4205 187.2865,190.91 187.7875,189.5 L184.6375,189.5 C184.231,190.9325 184,192.437 184,194 C184,203.1125 191.3875,210.5 200.5,210.5 C203.6905,210.5 206.6485,209.5685 209.17,207.9995 L211.9495,212 L215.1775,201.5165 L204.6865,201.5165 L207.469,205.538 L207.469,205.538 Z" id="Shape" sketch:type="MSShapeGroup" transform="translate(200.500000, 194.000000) scale(-1, 1) translate(-200.500000, -194.000000) "></path>
        </g>
    </g>
</svg>